<?xml version="1.0" encoding="UTF-8"?>
<svg id="Layer_2" data-name="Layer 2" xmlns="http://www.w3.org/2000/svg" xmlns:xlink="http://www.w3.org/1999/xlink" viewBox="0 0 266.92 358.87">
  <defs>
    <style>
      .cls-1 {
        fill: url(#linear-gradient-4);
      }

      .cls-1, .cls-2, .cls-3, .cls-4, .cls-5, .cls-6, .cls-7, .cls-8, .cls-9, .cls-10 {
        fill-rule: evenodd;
      }

      .cls-2 {
        fill: url(#linear-gradient-12);
      }

      .cls-11 {
        letter-spacing: .2em;
      }

      .cls-12 {
        fill: url(#linear-gradient-15);
      }

      .cls-13 {
        letter-spacing: -.02em;
      }

      .cls-14 {
        letter-spacing: .13em;
      }

      .cls-15 {
        letter-spacing: .18em;
      }

      .cls-16 {
        mask: url(#mask-2);
      }

      .cls-17 {
        letter-spacing: .2em;
      }

      .cls-3 {
        fill: url(#linear-gradient-2);
      }

      .cls-18 {
        font-family: GalanoGrotesqueAltDEMO-Bold, 'Galano Grotesque Alt DEMO';
        font-size: 63.71px;
        font-weight: 700;
      }

      .cls-18, .cls-19 {
        fill: #fff;
      }

      .cls-4 {
        fill: url(#linear-gradient);
      }

      .cls-20 {
        mask: url(#mask-3);
      }

      .cls-21 {
        fill: url(#linear-gradient-11);
      }

      .cls-5 {
        fill: url(#linear-gradient-9);
      }

      .cls-22 {
        letter-spacing: .19em;
      }

      .cls-23 {
        letter-spacing: .17em;
      }

      .cls-24 {
        letter-spacing: .19em;
      }

      .cls-6 {
        fill: url(#linear-gradient-6);
      }

      .cls-7 {
        fill: url(#linear-gradient-16);
      }

      .cls-25 {
        mask: url(#mask-5);
      }

      .cls-8 {
        fill: url(#linear-gradient-14);
      }

      .cls-9 {
        fill: url(#linear-gradient-10);
      }

      .cls-26 {
        mask: url(#mask-4);
      }

      .cls-27 {
        fill: url(#linear-gradient-5);
      }

      .cls-28 {
        letter-spacing: 0em;
      }

      .cls-29 {
        letter-spacing: .16em;
      }

      .cls-30 {
        fill: url(#linear-gradient-7);
      }

      .cls-31 {
        mask: url(#mask-1);
      }

      .cls-32 {
        mask: url(#mask);
      }

      .cls-33 {
        fill: url(#linear-gradient-3);
      }

      .cls-34 {
        letter-spacing: .19em;
      }

      .cls-10 {
        fill: url(#linear-gradient-8);
      }

      .cls-19 {
        font-family: Satoshi-Medium, Satoshi;
        font-size: 13.82px;
        font-weight: 500;
      }

      .cls-35 {
        fill: url(#linear-gradient-13);
      }
    </style>
    <linearGradient id="linear-gradient" x1="2.79" y1="-53.29" x2="371.47" y2="236.76" gradientUnits="userSpaceOnUse">
      <stop offset="0" stop-color="#04003a"/>
      <stop offset="1" stop-color="#452979"/>
    </linearGradient>
    <linearGradient id="linear-gradient-2" x1="-69.87" y1="39.07" x2="298.82" y2="329.11" gradientUnits="userSpaceOnUse">
      <stop offset="0" stop-color="#ee3488"/>
      <stop offset="1" stop-color="#452979"/>
    </linearGradient>
    <linearGradient id="linear-gradient-3" x1="-1063.19" y1="-17935.87" x2="-694.55" y2="-15054.63" gradientTransform="translate(130.84 -1026.75) scale(.07 -.07)" gradientUnits="userSpaceOnUse">
      <stop offset="0" stop-color="#fff"/>
      <stop offset="1" stop-color="#fff" stop-opacity="0"/>
    </linearGradient>
    <mask id="mask" x="44.39" y="39.82" width="51.98" height="198.14" maskUnits="userSpaceOnUse">
      <g id="id0">
        <rect class="cls-33" x="44.39" y="39.82" width="51.98" height="198.14"/>
      </g>
    </mask>
    <linearGradient id="linear-gradient-4" x1="-66.5" y1="34.79" x2="302.18" y2="324.84" xlink:href="#linear-gradient-2"/>
    <linearGradient id="linear-gradient-5" x1="-1270.05" y1="-14617.85" x2="-210.2" y2="-15192.15" xlink:href="#linear-gradient-3"/>
    <mask id="mask-1" x="50.25" y="32.79" width="46.42" height="22.81" maskUnits="userSpaceOnUse">
      <g id="id2">
        <rect class="cls-27" x="50.25" y="32.79" width="46.42" height="22.81"/>
      </g>
    </mask>
    <linearGradient id="linear-gradient-6" x1="-16.84" y1="-28.34" x2="351.84" y2="261.71" xlink:href="#linear-gradient-2"/>
    <linearGradient id="linear-gradient-7" x1="-1670.22" y1="-14741.73" x2="462.74" y2="-15697.7" xlink:href="#linear-gradient-3"/>
    <mask id="mask-2" x="50.25" y="21.59" width="106.79" height="109.55" maskUnits="userSpaceOnUse">
      <g id="id4">
        <rect class="cls-30" x="50.25" y="21.59" width="106.79" height="109.55"/>
      </g>
    </mask>
    <linearGradient id="linear-gradient-8" x1="-12.5" y1="-33.85" x2="356.18" y2="256.19" xlink:href="#linear-gradient-2"/>
    <linearGradient id="linear-gradient-9" x1="-71.73" y1="41.44" x2="296.95" y2="331.48" xlink:href="#linear-gradient-2"/>
    <linearGradient id="linear-gradient-10" x1=".93" y1="-50.92" x2="369.61" y2="239.13" xlink:href="#linear-gradient-2"/>
    <linearGradient id="linear-gradient-11" x1="1037.94" y1="-14026.35" x2="671.85" y2="-16887.62" xlink:href="#linear-gradient-3"/>
    <mask id="mask-3" x="163.6" y="9.65" width="51.99" height="196.75" maskUnits="userSpaceOnUse">
      <g id="id6">
        <rect class="cls-21" x="163.6" y="9.65" width="51.98" height="196.75"/>
      </g>
    </mask>
    <linearGradient id="linear-gradient-12" x1="-2.44" y1="-46.64" x2="366.24" y2="243.4" xlink:href="#linear-gradient-2"/>
    <linearGradient id="linear-gradient-13" x1="1246.35" y1="-17322.58" x2="186.5" y2="-16748.28" xlink:href="#linear-gradient-3"/>
    <mask id="mask-4" x="163.31" y="190.62" width="46.42" height="22.81" maskUnits="userSpaceOnUse">
      <g id="id8">
        <rect class="cls-35" x="163.31" y="190.62" width="46.42" height="22.81"/>
      </g>
    </mask>
    <linearGradient id="linear-gradient-14" x1="-51.76" y1="16.06" x2="316.92" y2="306.1" xlink:href="#linear-gradient-2"/>
    <linearGradient id="linear-gradient-15" x1="1646.52" y1="-17198.69" x2="-486.44" y2="-16242.71" xlink:href="#linear-gradient-3"/>
    <mask id="mask-5" x="102.94" y="115.08" width="106.79" height="109.55" maskUnits="userSpaceOnUse">
      <g id="id10">
        <rect class="cls-12" x="102.94" y="115.08" width="106.79" height="109.55"/>
      </g>
    </mask>
    <linearGradient id="linear-gradient-16" x1="-56.1" y1="21.57" x2="312.58" y2="311.62" xlink:href="#linear-gradient-2"/>
  </defs>
  <g id="Layer_1-2" data-name="Layer 1">
    <g>
      <g id="Layer_1-3" data-name="Layer_1">
        <g id="_1907008576208" data-name=" 1907008576208">
          <path class="cls-4" d="m96.37,53.15l15.56,20.02,44.81,57.67V4.81l-26.76-4.81-53.31,23.96-26.16,11.76c14.07-6.26,31.48-1.06,42.08,12.58l3.77,4.86h0Z"/>
          <path class="cls-3" d="m65.41,67.07l30.97-13.92-3.77-4.86c-10.6-13.64-28.01-18.84-42.07-12.58l-.11.05-.4.18-26.65,11.98v184.66l42.03,5.38V67.07h0Z"/>
          <g class="cls-32">
            <path class="cls-1" d="m65.41,67.07l30.97-13.92-3.77-4.86c-2.6-3.35-5.62-6.19-8.89-8.48l-39.32,17.67v177.78l21.02,2.69V67.07h0Z"/>
          </g>
          <g class="cls-31">
            <path class="cls-6" d="m91.57,55.31l4.8-2.16-3.77-4.86c-8.32-10.7-20.83-16.21-32.62-15.06l-9.43,2.47h0c15.12-3.89,31.87,3.82,40.49,18.66l.54.94h0Z"/>
          </g>
          <g class="cls-16">
            <path class="cls-10" d="m127.42,52.7l-13.2-16.99c-9.66-12.43-25.54-17.15-38.34-11.39l-25.33,11.38c14.06-6.25,31.46-1.05,42.06,12.59l3.77,4.86,15.56,20.02,44.81,57.67v-42.98l-29.32-35.16h0Z"/>
          </g>
          <path class="cls-5" d="m163.6,193.07l-15.56-20.02-44.81-57.67v127.42l26.76,3.42,53.31-23.96,26.16-11.76c-14.07,6.26-31.48,1.06-42.08-12.58l-3.77-4.86h0Z"/>
          <path class="cls-9" d="m194.57,179.15l-30.97,13.92,3.77,4.86c10.6,13.64,28.01,18.84,42.07,12.58l.11-.05.4-.18,26.65-11.98V15.03s-42.03-5.38-42.03-5.38v169.5h0Z"/>
          <g class="cls-20">
            <path class="cls-2" d="m194.57,179.15l-30.97,13.92,3.77,4.86c2.6,3.35,5.62,6.19,8.89,8.48l39.32-17.67V12.34l-21.02-2.69v169.5h0Z"/>
          </g>
          <g class="cls-26">
            <path class="cls-8" d="m168.41,190.91l-4.8,2.16,3.77,4.86c8.32,10.7,20.83,16.21,32.62,15.06l9.43-2.47h0c-15.12,3.89-31.87-3.82-40.49-18.66l-.54-.94h0Z"/>
          </g>
          <g class="cls-25">
            <path class="cls-7" d="m132.56,193.51l13.2,16.99c9.66,12.43,25.54,17.15,38.34,11.39l25.33-11.38c-14.06,6.25-31.46,1.05-42.06-12.59l-3.77-4.86-15.56-20.02-44.81-57.67v42.98l29.32,35.16h0Z"/>
          </g>
        </g>
      </g>
      <text class="cls-18" transform="translate(31.18 331.13)"><tspan x="0" y="0">Ni</tspan><tspan class="cls-28" x="66.83" y="0">fl</tspan><tspan class="cls-13" x="111.93" y="0">e</tspan><tspan x="147.1" y="0">x.</tspan></text>
      <text class="cls-19" transform="translate(0 355.65)"><tspan class="cls-14" x="0" y="0">W</tspan><tspan class="cls-34" x="15.7" y="0">a</tspan><tspan class="cls-22" x="25.73" y="0">t</tspan><tspan class="cls-11" x="32.82" y="0">ching A</tspan><tspan class="cls-24" x="99.81" y="0">n</tspan><tspan class="cls-17" x="110.38" y="0">ywha</tspan><tspan class="cls-15" x="154.26" y="0">r</tspan><tspan class="cls-11" x="161.86" y="0">e</tspan><tspan class="cls-23" x="172.11" y="0"> </tspan><tspan class="cls-29" x="178.23" y="0">&amp;</tspan><tspan class="cls-17" x="190.22" y="0" xml:space="preserve"> A</tspan><tspan class="cls-24" x="208.67" y="0">n</tspan><tspan class="cls-17" x="219.24" y="0">ytime</tspan></text>
    </g>
  </g>
</svg>